<svg xmlns="http://www.w3.org/2000/svg" version="1.1" xmlns:xlink="http://www.w3.org/1999/xlink"
  xmlns:svgjs="http://svgjs.dev/svgjs" width="1000" height="707" viewBox="0 0 1000 707">
  <g transform="matrix(1,0,0,1,-0.6060606060606233,-0.35349999999994)"><svg viewBox="0 0 396 280"
      data-background-color="#ffffff" preserveAspectRatio="xMidYMid meet" height="707" width="1000"
      xmlns="http://www.w3.org/2000/svg" xmlns:xlink="http://www.w3.org/1999/xlink">
      <g id="tight-bounds" transform="matrix(1,0,0,1,0.2400000000000091,0.13999999999998636)"><svg
          viewBox="0 0 395.52 279.72" height="279.72" width="395.52">
          <g><svg viewBox="0 0 395.52 279.72" height="279.72" width="395.52">
              <g><svg viewBox="0 0 395.52 279.72" height="279.72" width="395.52">
                  <g><svg viewBox="0 0 395.52 279.72" height="279.72" width="395.52">
                      <g><svg viewBox="0 0 395.52 279.72" height="279.72" width="395.52">
                          <g transform="matrix(1,0,0,1,95.70146727714408,57.44670465270788)"><svg
                              viewBox="0 0 204.11706544571183 164.82659069458427" height="164.82659069458427"
                              width="204.11706544571183">
                              <g>
                                <circle r="82" cx="102.05853272285592" cy="82.41329534729213" fill="#ea9937"
                                  data-fill-palette-color="accent"></circle><svg xmlns="http://www.w3.org/2000/svg"
                                  xmlns:xlink="http://www.w3.org/1999/xlink" version="1.1" x="34.95935926186291"
                                  y="34.95935926186291" viewBox="8.175000190734863 5 83.64999389648438 90"
                                  enable-background="new 0 0 100 100" xml:space="preserve" height="94.90787217085845"
                                  width="134.198346921986" class="icon-o-0" data-fill-palette-color="quaternary"
                                  id="o-0">
                                  <path fill-rule="evenodd" clip-rule="evenodd"
                                    d="M21.025 25.05c0.232-0.1 0.5-0.15 0.8-0.15 0.233 0.034 0.433 0.167 0.6 0.4 0.167 0.2 0.233 0.433 0.2 0.7 0 0.3-0.117 0.517-0.35 0.65-1.067 0.767-2.067 1.617-3 2.55-0.4 0.433-0.75 0.85-1.051 1.25-0.232 0.167-0.467 0.25-0.699 0.25-0.301 0-0.533-0.083-0.7-0.25-0.233-0.167-0.351-0.4-0.351-0.7 0-0.233 0.084-0.467 0.25-0.7 0.4-0.4 0.783-0.817 1.15-1.25C18.908 26.833 19.958 25.917 21.025 25.05zM31.675 19.55c0.3-0.067 0.567-0.05 0.8 0.05 0.233 0.133 0.384 0.317 0.45 0.55 0.033 0.3 0.033 0.567 0 0.8-0.2 0.233-0.417 0.367-0.649 0.4-1.867 0.6-3.634 1.367-5.301 2.3-0.232 0.133-0.482 0.133-0.75 0-0.232-0.1-0.416-0.25-0.55-0.45-0.133-0.233-0.167-0.483-0.1-0.75 0.133-0.233 0.316-0.45 0.55-0.65C27.858 20.867 29.708 20.117 31.675 19.55zM37.225 18.75c0.167-0.233 0.367-0.35 0.601-0.35 0.633-0.133 1.267-0.2 1.899-0.2 1-0.5 1.917-1.083 2.75-1.75 0.167-0.233 0.384-0.35 0.65-0.35 0.233 0 0.467 0.117 0.7 0.35 0.1 0.233 0.149 0.467 0.149 0.7 0 0.3-0.083 0.534-0.25 0.7-0.967 0.9-2.083 1.633-3.35 2.2-0.133 0.066-0.25 0.1-0.35 0.1-0.667 0.067-1.351 0.117-2.051 0.15-0.232 0.066-0.433 0.017-0.6-0.15-0.233-0.233-0.383-0.466-0.45-0.7C36.925 19.15 37.025 18.917 37.225 18.75zM45.925 6.4c0-0.267 0.117-0.5 0.351-0.7 0.133-0.233 0.366-0.35 0.699-0.35 0.233 0 0.434 0.117 0.601 0.35 0.233 0.2 0.35 0.433 0.35 0.7 0.067 2.3-0.183 4.35-0.75 6.15-0.133 0.267-0.316 0.466-0.55 0.6-0.233 0.1-0.467 0.117-0.7 0.05-0.3-0.1-0.5-0.267-0.6-0.5-0.134-0.2-0.167-0.417-0.101-0.65C45.758 10.417 45.992 8.533 45.925 6.4zM8.725 45.4c0.033-0.3 0.167-0.533 0.4-0.7 0.2-0.133 0.434-0.167 0.7-0.1 0.3 0 0.533 0.117 0.7 0.35 0.133 0.233 0.166 0.5 0.1 0.8-0.3 1.767-0.45 3.633-0.45 5.6v4.55c0 0.3-0.116 0.55-0.35 0.75C9.658 56.883 9.458 57 9.225 57c-0.3 0-0.533-0.117-0.699-0.35-0.233-0.2-0.351-0.45-0.351-0.75v-4.55C8.175 49.25 8.358 47.267 8.725 45.4zM78.175 86.55c0.3 0 0.533 0.117 0.7 0.35 0.2 0.233 0.267 0.467 0.2 0.7-0.067 0.233-0.184 0.45-0.351 0.65-1.633 1.267-3.366 2.367-5.199 3.3-0.233 0.133-0.467 0.133-0.7 0-0.267-0.034-0.467-0.167-0.601-0.4-0.1-0.267-0.133-0.533-0.1-0.8 0.133-0.233 0.316-0.45 0.55-0.65 1.7-0.8 3.3-1.767 4.8-2.9C77.675 86.567 77.908 86.483 78.175 86.55zM87.025 78.65c0.033 0.167 0 0.4-0.101 0.7-1.1 1.7-2.35 3.333-3.75 4.9-0.233 0.167-0.467 0.25-0.7 0.25-0.267 0-0.5-0.05-0.699-0.15-0.233-0.233-0.351-0.467-0.351-0.7 0-0.3 0.101-0.533 0.3-0.7 1.334-1.467 2.518-3.017 3.551-4.65 0.1-0.233 0.3-0.383 0.6-0.45s0.533-0.033 0.7 0.1C86.809 78.05 86.958 78.283 87.025 78.65zM68.675 92.55c0.067 0.233 0.033 0.466-0.1 0.7-0.167 0.233-0.367 0.367-0.601 0.4-1.933 0.6-3.949 0.983-6.05 1.15-0.3 0.066-0.566-0.017-0.8-0.25-0.167-0.133-0.283-0.333-0.35-0.6 0-0.3 0.1-0.533 0.3-0.7 0.167-0.233 0.399-0.35 0.7-0.35 1.899-0.2 3.8-0.55 5.699-1.05 0.233-0.067 0.467-0.05 0.7 0.05C68.408 92.033 68.575 92.25 68.675 92.55zM56.025 95h-5.9c-0.233 0-0.467-0.1-0.7-0.3-0.167-0.233-0.25-0.467-0.25-0.7 0-0.267 0.083-0.5 0.25-0.7 0.233-0.167 0.467-0.25 0.7-0.25h5.9c0.3 0 0.533 0.083 0.699 0.25 0.2 0.2 0.301 0.433 0.301 0.7 0 0.233-0.101 0.467-0.301 0.7C56.559 94.9 56.325 95 56.025 95zM66.775 58.15c-0.033-1.033-0.533-2.183-1.5-3.45-1-1.3-2.533-2.033-4.601-2.2-2.066-0.167-4.649 1.684-7.75 5.55-3.167 3.867-5.566 6.533-7.2 8-1.933-0.7-3.883-1.717-5.85-3.05-0.233-0.167-0.483-0.3-0.75-0.4-0.4-0.133-0.816-0.183-1.25-0.15-0.8 0.066-1.434 0.333-1.9 0.8-0.5 0.467-0.732 1.017-0.699 1.65 0.066 0.6 0.399 1.117 1 1.55 3.699 2.533 7.399 4.167 11.1 4.9 1.367 0.3 2.717 0.45 4.05 0.45 5.367 0.1 10.783-1.684 16.25-5.35 0.567-0.434 0.9-0.95 1-1.55 0.067-0.633-0.149-1.183-0.649-1.65-0.434-0.433-0.983-0.683-1.65-0.75 0-0.2 0.017-0.383 0.05-0.55C66.658 60.45 66.775 59.184 66.775 58.15zM91.225 67.55c0.101 0.233 0.134 0.5 0.101 0.8-0.367 1.933-0.9 3.817-1.601 5.65-0.133 0.233-0.316 0.4-0.55 0.5-0.267 0.133-0.517 0.133-0.75 0-0.233-0.1-0.417-0.267-0.55-0.5-0.1-0.233-0.1-0.5 0-0.8 0.633-1.667 1.133-3.4 1.5-5.2 0.066-0.3 0.217-0.517 0.45-0.65 0.167-0.167 0.399-0.217 0.7-0.15C90.825 67.2 91.059 67.317 91.225 67.55zM90.875 55.4c0.3 0 0.533 0.083 0.7 0.25 0.167 0.167 0.25 0.4 0.25 0.7v5.5c0 0.1 0 0.25 0 0.45 0 0.267-0.083 0.5-0.25 0.7-0.167 0.167-0.4 0.25-0.7 0.25-0.233 0-0.467-0.083-0.7-0.25-0.167-0.2-0.25-0.433-0.25-0.7 0-0.2 0-0.35 0-0.45v-5.5c0-0.3 0.083-0.533 0.25-0.7C90.408 55.483 90.642 55.4 90.875 55.4zM89.275 44.85c-0.067-0.233 0-0.467 0.199-0.7 0.101-0.233 0.301-0.367 0.601-0.4 0.233-0.066 0.467-0.017 0.7 0.15 0.232 0.133 0.383 0.333 0.449 0.6 0.334 1.934 0.533 3.95 0.601 6.05 0 0.233-0.05 0.45-0.15 0.65-0.233 0.233-0.467 0.35-0.7 0.35-0.3 0-0.533-0.1-0.699-0.3-0.233-0.167-0.351-0.4-0.351-0.7C89.858 48.583 89.642 46.684 89.275 44.85zM84.875 33.5c0-0.233 0.1-0.4 0.3-0.5 0.233-0.167 0.5-0.233 0.8-0.2 0.233 0.066 0.434 0.216 0.601 0.45 1.167 1.767 2.149 3.583 2.95 5.45 0.066 0.233 0.066 0.5 0 0.8-0.167 0.233-0.367 0.4-0.601 0.5-0.233 0.133-0.467 0.133-0.7 0-0.3-0.1-0.467-0.267-0.5-0.5-0.767-1.833-1.717-3.566-2.85-5.2C84.809 34.067 84.809 33.8 84.875 33.5zM58.675 39.55c-0.1 0.1-0.183 0.2-0.25 0.3-0.3 0.367-0.467 0.783-0.5 1.25-0.033 0.633 0.167 1.15 0.601 1.55 0.433 0.467 0.949 0.717 1.55 0.75 0.633 0.034 1.183-0.167 1.649-0.6 0.134-0.1 0.25-0.2 0.351-0.3 2.7-2.133 5.7-2.15 9-0.05 0.233 0.1 0.467 0.233 0.7 0.4 0.5 0.367 1.066 0.483 1.699 0.35 0.601-0.1 1.084-0.383 1.45-0.85 0.367-0.5 0.5-1.067 0.4-1.7-0.067-0.3-0.167-0.566-0.3-0.8-0.167-0.233-0.384-0.45-0.65-0.65-1.133-0.8-2.233-1.434-3.3-1.9-3.2-1.434-6.2-1.483-9-0.15C60.908 37.717 59.775 38.517 58.675 39.55zM58.075 14.55c-0.067-0.233-0.033-0.467 0.1-0.7 0.101-0.3 0.3-0.483 0.601-0.55 0.232-0.067 0.467-0.034 0.699 0.1 0.233 0.167 0.384 0.367 0.45 0.6 0.101 0.367 0.217 0.684 0.351 0.95 0.3 1.066 0.467 2.15 0.5 3.25h0.1c0.233 0 0.467 0.1 0.7 0.3 0.167 0.233 0.25 0.467 0.25 0.7 0 0.267-0.083 0.5-0.25 0.7-0.233 0.167-0.467 0.25-0.7 0.25-0.333 0-0.65 0-0.95 0s-0.533-0.066-0.7-0.2c-0.232-0.233-0.35-0.467-0.35-0.7-0.066-1.333-0.25-2.583-0.55-3.75v0.1C58.258 15.233 58.175 14.883 58.075 14.55zM51.625 10.35c0.066 0 0.133 0 0.2 0 1.667 1.2 2.95 2.567 3.85 4.1 1.2 2.233 1.65 4.9 1.351 8h0.949c1.301 0 2.567 0.083 3.801 0.25 0.732 0.1 1.517 0.217 2.35 0.35 0.233 0.066 0.467 0.117 0.7 0.15 4.767 1.133 9.05 3.4 12.85 6.8 0.333 0.367 0.684 0.717 1.05 1.05 0.334 0.367 0.684 0.75 1.051 1.15 0.699 0.767 1.366 1.55 2 2.35 2.066 2.767 3.583 5.767 4.55 9 0.7 2.633 1.05 5.417 1.05 8.35v9.6c0 3.567-0.566 6.934-1.7 10.1-1.433 3.933-3.75 7.5-6.95 10.7-5.767 5.7-12.717 8.55-20.85 8.55h-15.85c-3.567 0-6.934-0.55-10.101-1.65-3.167-1.167-6.1-2.883-8.8-5.15-0.233-0.233-0.434-0.4-0.6-0.5-0.134-0.133-0.217-0.25-0.25-0.35-0.367-0.3-0.7-0.6-1-0.9-0.634-0.567-1.217-1.184-1.75-1.85-4.567-5.333-6.851-11.65-6.851-18.95v-9.6c0-8.1 2.867-15.05 8.601-20.85 4.732-4.767 10.333-7.55 16.8-8.35 0.7-0.133 1.467-0.2 2.3-0.2 0.533-0.033 1.083-0.05 1.65-0.05h0.949c4.9-2.133 7.233-6.517 7-13.15 0.334 0.2 0.684 0.383 1.051 0.55C51.191 10.017 51.392 10.184 51.625 10.35zM50.825 5c0.066 0 0.133 0 0.2 0 0.1 0 0.217 0.033 0.35 0.1 2.033 0.867 3.733 2.017 5.1 3.45 0.233 0.167 0.351 0.4 0.351 0.7 0 0.233-0.101 0.434-0.3 0.6-0.233 0.233-0.467 0.35-0.7 0.35-0.267 0-0.5-0.083-0.7-0.25-1.233-1.167-2.684-2.167-4.35-3-0.233 0-0.417-0.083-0.551-0.25-0.232-0.2-0.35-0.434-0.35-0.7 0-0.233 0.117-0.467 0.35-0.7C50.392 5.1 50.592 5 50.825 5zM72.825 23.05c-0.233 0.1-0.467 0.1-0.7 0-0.8-0.367-1.533-0.684-2.2-0.95-1.133-0.433-2.25-0.8-3.35-1.1-0.3-0.033-0.5-0.167-0.601-0.4-0.133-0.233-0.166-0.5-0.1-0.8 0.066-0.233 0.217-0.417 0.45-0.55 0.233-0.167 0.5-0.183 0.8-0.05 1.167 0.267 2.3 0.617 3.4 1.05 0.8 0.267 1.6 0.617 2.399 1.05 0.233 0.033 0.417 0.2 0.55 0.5 0.033 0.233 0.033 0.5 0 0.8C73.342 22.833 73.125 22.983 72.825 23.05zM76.875 24.55c0.233-0.233 0.467-0.35 0.7-0.35 0.3 0 0.533 0.117 0.7 0.35 0.066 0.033 0.133 0.083 0.199 0.15 1.268 0.933 2.483 1.967 3.65 3.1 0.233 0.3 0.467 0.566 0.7 0.8 0.2 0.167 0.267 0.4 0.2 0.7 0 0.3-0.084 0.533-0.25 0.7-0.233 0.167-0.467 0.233-0.7 0.2-0.3 0-0.533-0.117-0.7-0.35-0.233-0.2-0.45-0.417-0.65-0.65-1.033-1.033-2.133-1.983-3.3-2.85-0.366-0.167-0.583-0.367-0.649-0.6-0.101-0.167-0.15-0.333-0.15-0.5C76.625 24.95 76.708 24.717 76.875 24.55zM22.175 35.35c-0.366 0.367-0.517 0.833-0.45 1.4 0.067 0.533 0.301 0.983 0.7 1.35 0.4 0.333 0.867 0.467 1.4 0.4 0.533-0.033 0.967-0.267 1.3-0.7 0.2-0.167 0.35-0.3 0.45-0.4 0.433-0.367 0.649-0.85 0.649-1.45 0-0.567-0.217-1.033-0.649-1.4-0.333-0.333-0.8-0.5-1.4-0.5-0.533 0-1 0.167-1.399 0.5C22.542 34.783 22.342 35.05 22.175 35.35zM27.525 33.45c0.3 0.467 0.699 0.75 1.199 0.85 0.5 0.133 1.018 0.05 1.551-0.25 4.1-2.567 9.017-3.733 14.75-3.5 0.533 0.033 1.017-0.117 1.449-0.45 0.4-0.4 0.601-0.867 0.601-1.4 0.066-0.6-0.083-1.05-0.45-1.35-0.4-0.4-0.867-0.633-1.4-0.7-6.699-0.3-12.366 1.05-17 4.05-0.467 0.3-0.767 0.717-0.899 1.25C27.158 32.483 27.225 32.983 27.525 33.45zM37.825 93.15c0.167-0.167 0.399-0.25 0.7-0.25 0.933 0.1 1.866 0.15 2.8 0.15h2.95c0.232 0 0.467 0.083 0.699 0.25 0.167 0.2 0.25 0.433 0.25 0.7 0 0.233-0.083 0.467-0.25 0.7-0.232 0.2-0.467 0.3-0.699 0.3h-2.95c-1 0-2-0.033-3-0.1-0.267-0.066-0.5-0.183-0.7-0.35-0.167-0.167-0.217-0.4-0.15-0.7C37.475 93.55 37.592 93.317 37.825 93.15zM26.975 89.9c0.233-0.133 0.467-0.1 0.7 0.1 1.667 0.8 3.417 1.467 5.25 2 0.233 0.067 0.434 0.217 0.601 0.45 0.066 0.233 0.066 0.5 0 0.8-0.067 0.233-0.217 0.4-0.45 0.5-0.233 0.167-0.467 0.233-0.7 0.2-1.934-0.6-3.783-1.333-5.55-2.2-0.233-0.133-0.417-0.316-0.55-0.55-0.033-0.3 0-0.567 0.1-0.8C26.508 90.167 26.708 90 26.975 89.9zM17.675 82.6c0.3 0 0.533 0.117 0.7 0.35 0.3 0.267 0.6 0.583 0.9 0.95 1.1 1.1 2.267 2.1 3.5 3 0.232 0.167 0.383 0.383 0.449 0.65 0.067 0.233 0 0.466-0.199 0.7-0.167 0.233-0.4 0.367-0.7 0.4-0.233 0-0.467-0.083-0.7-0.25-1.267-0.966-2.517-2.033-3.75-3.2-0.367-0.3-0.684-0.617-0.95-0.95-0.2-0.233-0.3-0.467-0.3-0.7 0-0.3 0.117-0.534 0.35-0.7C17.208 82.684 17.441 82.6 17.675 82.6zM11.775 72.75c0.232 0.067 0.416 0.25 0.55 0.55 0.5 1.433 1.167 2.867 2 4.3 0.167 0.233 0.366 0.483 0.6 0.75 0.101 0.233 0.134 0.5 0.101 0.8-0.067 0.233-0.217 0.434-0.45 0.6-0.233 0.133-0.467 0.2-0.7 0.2-0.3-0.067-0.5-0.217-0.6-0.45-0.233-0.3-0.434-0.583-0.601-0.85-0.899-1.533-1.633-3.083-2.2-4.65-0.133-0.3-0.133-0.566 0-0.8 0.101-0.233 0.268-0.383 0.5-0.45C11.275 72.65 11.542 72.65 11.775 72.75zM9.825 61.6c0.233 0.167 0.35 0.4 0.35 0.7 0 1.9 0.184 3.767 0.55 5.6 0 0.3-0.066 0.567-0.199 0.8-0.167 0.167-0.367 0.283-0.601 0.35-0.3 0.033-0.533-0.034-0.7-0.2-0.232-0.1-0.383-0.3-0.449-0.6-0.334-1.933-0.533-3.9-0.601-5.9 0-0.267 0.117-0.517 0.351-0.75 0.133-0.2 0.366-0.3 0.699-0.3C9.458 61.3 9.658 61.4 9.825 61.6zM28.775 39.85c-0.301 0.367-0.467 0.783-0.5 1.25-0.033 0.633 0.166 1.15 0.6 1.55 0.4 0.467 0.9 0.717 1.5 0.75 0.633 0.034 1.184-0.167 1.65-0.6 0.133-0.1 0.25-0.2 0.35-0.3 2.7-2.133 5.717-2.15 9.05-0.05 0.233 0.1 0.467 0.233 0.7 0.4 0.5 0.367 1.05 0.483 1.65 0.35 0.6-0.1 1.083-0.383 1.449-0.85 0.367-0.5 0.5-1.067 0.4-1.7-0.066-0.3-0.167-0.566-0.3-0.8-0.167-0.233-0.384-0.45-0.65-0.65-1.133-0.8-2.217-1.434-3.25-1.9-3.233-1.434-6.25-1.483-9.05-0.15-1.167 0.567-2.283 1.367-3.35 2.4C28.925 39.65 28.842 39.75 28.775 39.85zM13.025 34.15c0.1-0.3 0.3-0.45 0.6-0.45 0.233-0.133 0.467-0.1 0.7 0.1 0.233 0.1 0.383 0.3 0.45 0.6 0.033 0.233 0 0.467-0.101 0.7-1.066 1.633-1.917 3.35-2.55 5.15-0.1 0.233-0.267 0.417-0.5 0.55-0.233 0.1-0.467 0.133-0.7 0.1-0.3-0.133-0.517-0.35-0.649-0.65-0.067-0.233-0.067-0.467 0-0.7C10.975 37.65 11.892 35.85 13.025 34.15z"
                                    fill="#ffffff" data-fill-palette-color="quaternary"></path>
                                </svg>
                              </g>
                            </svg></g>
                          <path
                            d="M77.024 102.32L62.836 104.723C62.59 104.752 62.413 104.84 62.304 104.987 62.195 105.135 62.078 105.43 61.951 105.871V105.871L58.963 104.824C59.199 103.906 59.61 103.161 60.197 102.587 60.782 102.02 61.506 101.656 62.37 101.494V101.494L74.137 99.637 64.765 89.245 66.03 85.637 78.021 99.229 89.524 103.174 88.423 106.315ZM101.965 79.892C100.795 81.754 99.352 83.121 97.633 83.993 95.921 84.869 94.092 85.226 92.147 85.063 90.2 84.892 88.321 84.238 86.511 83.101V83.101L72.187 74.106 73.957 71.287 88.281 80.282C89.703 81.175 91.128 81.684 92.555 81.808 93.979 81.937 95.289 81.697 96.485 81.086 97.686 80.479 98.691 79.532 99.498 78.247V78.247C100.735 76.277 101.071 74.29 100.505 72.286 99.94 70.283 98.589 68.61 96.453 67.269V67.269L82.129 58.274 83.904 55.447 98.228 64.442C100.13 65.636 101.559 67.095 102.516 68.818 103.47 70.533 103.902 72.357 103.81 74.29 103.717 76.214 103.102 78.082 101.965 79.892ZM95.153 42.953L96.213 41.998 114.159 44.97 113.059 26.812 114.119 25.857 133.064 46.874 130.584 49.109 118.25 35.426C117.979 35.126 117.537 34.575 116.924 33.774V33.774C117.087 35.898 117.2 38.361 117.265 41.163 117.334 43.969 117.343 46.417 117.292 48.506V48.506L114.857 48.236C109.916 47.651 106.893 47.294 105.787 47.165V47.165C105.403 47.102 105.018 47.027 104.631 46.94 104.244 46.853 103.88 46.782 103.539 46.726V46.726L102.703 46.539C103.274 47.051 103.785 47.557 104.236 48.058V48.058L116.571 61.741 114.098 63.97ZM129.72 16.996L131.014 16.396 147.28 24.541 151.597 6.87 152.892 6.271 164.777 31.949 161.747 33.351 154.009 16.633C153.839 16.266 153.58 15.609 153.231 14.663V14.663C152.758 16.74 152.139 19.126 151.372 21.822 150.609 24.524 149.894 26.865 149.228 28.845V28.845L146.981 27.868C142.434 25.848 139.651 24.613 138.633 24.162V24.162C138.285 23.989 137.939 23.803 137.595 23.606 137.251 23.409 136.924 23.233 136.615 23.079V23.079L135.872 22.653C136.266 23.311 136.604 23.946 136.888 24.558V24.558L144.625 41.276 141.605 42.674ZM178.165 17.551L169.369 6.163C169.228 5.96 169.067 5.844 168.886 5.818 168.704 5.791 168.389 5.826 167.94 5.923V5.923L167.457 2.793C168.378 2.569 169.23 2.582 170.012 2.83 170.787 3.079 171.449 3.546 171.999 4.233V4.233L179.175 13.741 183.934 0.582 187.713 0 181.362 16.977 183.294 28.982 180.004 29.489ZM220.967 30.353L225.894 6.001 216.851 4.172 217.463 1.148 238.82 5.468 238.208 8.493 229.156 6.661 224.229 31.013ZM259.08 40.965L259.361 43.901C258.689 44.19 257.859 44.11 256.87 43.662V43.662C255.586 43.081 254.786 42.093 254.47 40.698V40.698L252.842 32.865C252.647 32.037 252.455 31.357 252.266 30.827 252.079 30.291 251.74 29.756 251.249 29.223 250.763 28.692 250.081 28.213 249.201 27.785V27.785L250.495 24.928 254.052 26.539C255.508 27.198 256.849 27.295 258.074 26.828 259.297 26.352 260.243 25.374 260.914 23.894V23.894C261.584 22.413 261.733 21.022 261.36 19.72 260.981 18.416 260.161 17.478 258.902 16.908V16.908L253.566 14.492 243.317 37.125 240.285 35.752 251.807 10.308 260.322 14.164C261.655 14.768 262.714 15.666 263.5 16.858 264.288 18.044 264.735 19.353 264.842 20.786 264.954 22.222 264.714 23.594 264.122 24.902V24.902C263.407 26.481 262.343 27.71 260.931 28.588 259.525 29.469 258.139 29.808 256.773 29.604V29.604C256.099 29.506 255.071 29.144 253.689 28.518V28.518C254.316 29.046 254.748 29.49 254.985 29.849 255.222 30.208 255.429 30.724 255.606 31.396V31.396L256.131 33.866C256.886 37.332 257.314 39.281 257.416 39.711V39.711C257.512 40.088 257.614 40.368 257.724 40.551 257.834 40.734 257.975 40.864 258.147 40.942V40.942C258.448 41.078 258.759 41.086 259.08 40.965ZM272.647 55.515C270.924 54.15 269.722 52.567 269.042 50.764 268.357 48.966 268.201 47.109 268.574 45.194 268.956 43.277 269.81 41.48 271.137 39.804V39.804L281.636 26.543 284.246 28.609 273.747 41.87C272.705 43.187 272.044 44.548 271.766 45.953 271.482 47.354 271.579 48.683 272.057 49.938 272.53 51.198 273.361 52.3 274.551 53.241V53.241C276.375 54.686 278.314 55.236 280.367 54.891 282.42 54.547 284.229 53.386 285.795 51.408V51.408L296.294 38.147 298.911 40.219 288.412 53.48C287.018 55.241 285.413 56.503 283.596 57.267 281.788 58.029 279.928 58.26 278.016 57.959 276.113 57.657 274.324 56.842 272.647 55.515ZM293.604 79.379C292.087 77.272 291.236 74.989 291.052 72.528 290.866 70.078 291.317 67.725 292.403 65.472 293.49 63.219 295.098 61.325 297.227 59.792V59.792C299.405 58.224 301.798 57.277 304.407 56.953 307.01 56.633 309.488 56.935 311.841 57.858 314.197 58.788 316.112 60.276 317.586 62.323V62.323C319.024 64.321 319.895 66.465 320.199 68.756 320.493 71.046 319.458 73.008 317.095 74.643V74.643L315.222 72.041C316.653 71.11 317.219 69.875 316.918 68.338 316.612 66.805 315.959 65.344 314.958 63.954V63.954C313.85 62.416 312.373 61.327 310.525 60.688 308.677 60.049 306.722 59.886 304.662 60.198 302.605 60.515 300.728 61.285 299.032 62.507V62.507C297.406 63.677 296.165 65.128 295.309 66.858 294.456 68.594 294.083 70.408 294.191 72.3 294.299 74.192 294.945 75.962 296.132 77.609V77.609C297.243 79.153 298.623 80.324 300.271 81.124 301.913 81.928 303.66 82.248 305.513 82.086V82.086L305.593 85.382C303.173 85.553 300.919 85.083 298.829 83.969 296.741 82.847 294.999 81.317 293.604 79.379ZM329.798 85.128L331.026 88.222 319.572 92.765 320.061 93.888C320.457 94.812 320.875 95.484 321.318 95.903 321.766 96.321 322.404 96.659 323.233 96.918V96.918C324.345 97.289 325.947 97.615 328.039 97.895V97.895C329.112 98.021 331.462 98.213 335.091 98.472V98.472L336.557 102.167C335.474 102.017 333.769 101.833 331.441 101.617V101.617C329.527 101.419 328.14 101.269 327.28 101.167V101.167L326.258 101.007C325.21 100.871 324.252 100.696 323.384 100.482V100.482C323.289 100.462 322.919 100.361 322.274 100.182 321.636 100 321.092 99.78 320.642 99.523V99.523L313.67 110.07C313.453 110.417 313.317 110.689 313.264 110.884 313.211 111.079 313.219 111.265 313.289 111.44V111.44C313.361 111.622 313.453 111.763 313.565 111.864 313.678 111.964 313.809 112.057 313.959 112.143V112.143L312.286 114.428C311.443 114.059 310.841 113.419 310.481 112.51V112.51C309.971 111.225 310.074 109.976 310.79 108.764V108.764L318.257 97.27C317.646 96.46 317.075 95.388 316.546 94.052V94.052L305.13 98.581 303.873 95.412ZM69.56 182.421L85.999 177.335 89.258 187.869 87.885 188.294 85.081 179.228 79.195 181.049 81.33 187.95 79.958 188.374 77.823 181.474 70.014 183.89ZM74.335 196.512L90.343 190.2 90.903 191.621 74.895 197.933ZM77.363 203.062L92.885 195.066 93.103 195.488 85.882 211.692 85.264 212.966 86.379 212.369 98.367 206.193 99.057 207.533 83.715 215.437 83.266 214.564 83.917 212.647 89.607 199.747 90.529 197.804 88.836 198.847 78.053 204.402ZM105.126 215.539C105.97 216.877 106.434 218.26 106.52 219.688 106.611 221.113 106.329 222.471 105.674 223.762 105.013 225.057 104.024 226.181 102.708 227.135V227.135C101.31 228.147 99.856 228.755 98.346 228.958 96.835 229.161 95.399 228.949 94.036 228.321 92.668 227.696 91.493 226.707 90.511 225.353V225.353L89.669 224.189C89.589 224.08 89.419 223.845 89.158 223.485 88.897 223.124 88.449 222.42 87.815 221.372V221.372L87.203 220.354 101.26 210.17ZM91.07 223.761C92.585 225.853 94.269 227.09 96.12 227.473 97.967 227.85 99.849 227.344 101.766 225.955V225.955C103.558 224.658 104.633 223.142 104.992 221.407 105.355 219.678 104.968 217.931 103.83 216.165V216.165L100.981 212.233 89.103 220.839 89.608 221.622C90.543 222.994 91.03 223.707 91.07 223.761ZM112.009 238.006L114.307 229.032C114.387 228.72 114.275 228.42 113.969 228.135V228.135L114.95 227.086C115.32 227.431 115.558 227.788 115.666 228.157 115.783 228.525 115.785 228.942 115.672 229.409V229.409L113.653 237.314 122.497 234.449 123.746 235.616 113.13 238.985 108.025 244.516 106.902 243.466ZM120.559 254.997C119.246 254.04 118.279 252.865 117.659 251.47 117.045 250.08 116.823 248.621 116.993 247.093 117.159 245.57 117.723 244.149 118.684 242.83V242.83L118.963 242.446C119.932 241.116 121.119 240.128 122.524 239.482 123.928 238.837 125.386 238.588 126.896 238.737 128.41 238.88 129.811 239.421 131.097 240.358V240.358C132.4 241.307 133.352 242.48 133.953 243.877 134.558 245.269 134.766 246.73 134.577 248.261 134.393 249.796 133.817 251.229 132.848 252.559V252.559L132.568 252.943C131.588 254.29 130.411 255.281 129.038 255.917 127.666 256.552 126.234 256.794 124.743 256.642 123.257 256.494 121.862 255.946 120.56 254.997ZM121.322 253.813C122.396 254.595 123.553 255.046 124.793 255.164 126.037 255.278 127.237 255.068 128.394 254.533 129.554 253.994 130.54 253.168 131.35 252.056V252.056L131.63 251.671C132.448 250.549 132.937 249.344 133.097 248.059 133.257 246.774 133.089 245.55 132.592 244.388 132.101 243.229 131.319 242.259 130.245 241.477V241.477C129.187 240.706 128.032 240.27 126.781 240.167 125.529 240.065 124.318 240.289 123.15 240.839 121.981 241.39 120.992 242.221 120.182 243.333V243.333L119.902 243.717C119.092 244.83 118.608 246.021 118.451 247.291 118.297 248.556 118.468 249.765 118.963 250.918 119.467 252.07 120.253 253.035 121.322 253.813ZM137.211 265.059C136.086 264.46 135.237 263.665 134.664 262.673 134.089 261.688 133.811 260.6 133.832 259.412 133.853 258.224 134.173 257.046 134.794 255.879V255.879L139.719 246.617 141.059 247.329 136.134 256.592C135.605 257.586 135.332 258.552 135.314 259.49 135.297 260.428 135.518 261.283 135.979 262.055 136.436 262.817 137.079 263.419 137.907 263.859V263.859C138.752 264.309 139.616 264.508 140.498 264.458 141.384 264.402 142.209 264.1 142.974 263.551 143.742 262.997 144.386 262.232 144.905 261.256V261.256L149.83 251.993 151.161 252.701 146.236 261.963C145.584 263.19 144.762 264.139 143.771 264.811 142.779 265.484 141.713 265.837 140.572 265.872 139.427 265.912 138.307 265.641 137.211 265.059ZM159.778 272.648L159.936 274.024C159.54 274.121 159.153 274.1 158.773 273.959V273.959C158.318 273.79 157.991 273.568 157.791 273.292 157.593 273.01 157.447 272.708 157.351 272.384V272.384L155.952 267.549C155.676 266.605 155.378 265.926 155.057 265.512 154.736 265.097 154.223 264.735 153.519 264.423V264.423L154.011 263.095 156.06 263.855C157.084 264.235 158.017 264.233 158.858 263.847 159.699 263.461 160.314 262.744 160.704 261.694V261.694C161.088 260.657 161.114 259.696 160.781 258.81 160.448 257.924 159.824 257.31 158.907 256.97V256.97L155.132 255.569 149.634 270.383 148.221 269.859 154.208 253.726 159.491 255.687C160.345 256.004 161.026 256.494 161.535 257.158 162.05 257.824 162.367 258.589 162.485 259.453 162.601 260.323 162.496 261.198 162.169 262.076V262.076C161.86 262.911 161.421 263.59 160.853 264.113 160.278 264.633 159.694 264.996 159.1 265.2 158.504 265.41 157.996 265.48 157.576 265.411V265.411C157.292 265.363 156.974 265.27 156.622 265.132 156.273 264.988 156.088 264.913 156.069 264.906V264.906C156.533 265.207 156.858 265.659 157.045 266.26V266.26L157.511 267.912C157.648 268.394 157.859 269.134 158.144 270.132 158.426 271.136 158.618 271.761 158.721 272.008V272.008C158.788 272.177 158.852 272.305 158.913 272.392 158.98 272.482 159.093 272.556 159.251 272.615V272.615C159.453 272.69 159.629 272.701 159.778 272.648ZM171.103 276.762L174.074 259.556 174.542 259.637 183.123 275.163 183.768 276.424 183.963 275.174 186.258 261.886 187.743 262.142 184.807 279.149 183.84 278.982 182.702 277.307 175.835 264.993 174.84 263.087 174.652 265.066 172.588 277.019ZM190.724 279.356L191.267 262.156 202.308 262.505 202.264 263.91 192.729 263.609 192.54 269.595 199.557 269.817 199.513 271.222 192.496 271.001 192.275 277.998 202.316 278.315 202.271 279.72ZM204.986 279.431L210.509 261.097 210.992 261.048 220.133 277.895 218.533 278.057 215.52 272.617 208.385 273.341 206.586 279.268ZM214.785 271.279L211.836 265.66C211.5 265.023 211.226 264.393 211.014 263.771V263.771C210.892 264.576 210.757 265.247 210.608 265.784V265.784L208.847 271.881ZM235.346 273.047L236.23 274.112C235.952 274.41 235.616 274.604 235.221 274.693V274.693C234.747 274.801 234.352 274.794 234.034 274.672 233.714 274.544 233.426 274.37 233.169 274.152V274.152L229.355 270.867C228.609 270.227 227.988 269.821 227.493 269.65 226.997 269.478 226.37 269.454 225.609 269.578V269.578L225.297 268.197 227.428 267.714C228.493 267.473 229.273 266.961 229.766 266.179 230.26 265.396 230.383 264.459 230.136 263.367V263.367C229.892 262.288 229.388 261.469 228.625 260.909 227.862 260.348 227.004 260.176 226.05 260.392V260.392L222.123 261.281 225.613 276.693 224.143 277.026 220.342 260.243 225.838 258.999C226.726 258.797 227.564 258.836 228.353 259.114 229.149 259.39 229.832 259.857 230.403 260.516 230.976 261.182 231.365 261.972 231.572 262.886V262.886C231.769 263.754 231.772 264.563 231.582 265.311 231.385 266.061 231.094 266.684 230.709 267.179 230.324 267.681 229.937 268.017 229.547 268.189V268.189C229.283 268.304 228.966 268.4 228.596 268.477 228.225 268.547 228.029 268.584 228.009 268.589V268.589C228.562 268.588 229.082 268.788 229.567 269.19V269.19L230.859 270.319C231.238 270.648 231.819 271.152 232.602 271.832 233.387 272.519 233.89 272.938 234.111 273.088V273.088C234.259 273.193 234.382 273.265 234.481 273.305 234.587 273.343 234.722 273.344 234.886 273.307V273.307C235.097 273.259 235.25 273.173 235.346 273.047ZM245.293 261.445C246.236 261.639 247.054 262.007 247.747 262.547 248.432 263.084 248.929 263.787 249.239 264.658V264.658C249.587 265.636 249.626 266.611 249.355 267.58 249.091 268.547 248.503 269.379 247.591 270.076V270.076C246.991 270.54 246.106 270.981 244.937 271.397V271.397C243.259 271.993 242.059 272.374 241.337 272.538V272.538L240.06 272.842 234.207 256.391 239.421 254.536C240.145 254.279 240.829 254.15 241.474 254.149V254.149C242.489 254.146 243.367 254.403 244.11 254.919 244.852 255.435 245.392 256.17 245.731 257.123V257.123C245.989 257.847 246.07 258.538 245.974 259.195 245.879 259.851 245.576 260.439 245.066 260.957V260.957C244.936 261.096 244.733 261.268 244.456 261.474V261.474C244.883 261.43 245.163 261.42 245.293 261.445ZM240.226 255.742L236.099 257.211 238.198 263.11 241.963 261.771C242.979 261.409 243.706 260.857 244.144 260.114 244.581 259.372 244.625 258.511 244.277 257.533V257.533C243.968 256.662 243.463 256.079 242.764 255.784 242.058 255.491 241.212 255.477 240.226 255.742ZM244.71 270.006C246.051 269.529 247.002 268.872 247.563 268.035 248.116 267.194 248.201 266.237 247.819 265.163V265.163C247.448 264.121 246.798 263.39 245.868 262.969 244.934 262.557 243.844 262.572 242.599 263.016V263.016L238.662 264.416 241.067 271.174 243.102 270.525ZM254.019 259.04L246.437 253.72C246.172 253.534 245.852 253.534 245.477 253.719V253.719L244.843 252.43C245.296 252.206 245.715 252.109 246.098 252.139 246.483 252.159 246.875 252.305 247.271 252.576V252.576L253.953 257.257 254.397 247.971 255.931 247.216 255.331 258.337 258.702 265.067 257.323 265.746ZM271.78 248.399L263.431 244.387C263.14 244.247 262.825 244.299 262.485 244.542V244.542L261.648 243.375C262.059 243.08 262.456 242.916 262.839 242.883 263.223 242.84 263.633 242.92 264.068 243.122V243.122L271.424 246.651 270.347 237.417 271.737 236.422 272.96 247.492 277.384 253.581 276.134 254.477ZM289.465 243.901C288.518 244.754 287.481 245.28 286.353 245.48 285.23 245.684 284.113 245.573 283.004 245.148 281.894 244.722 280.897 244.018 280.012 243.036V243.036L272.99 235.243 274.117 234.227 281.139 242.021C281.893 242.857 282.708 243.444 283.583 243.781 284.459 244.118 285.338 244.202 286.221 244.033 287.094 243.864 287.879 243.465 288.575 242.838V242.838C289.286 242.197 289.769 241.453 290.024 240.607 290.273 239.755 290.271 238.876 290.018 237.97 289.759 237.059 289.26 236.193 288.52 235.371V235.371L281.498 227.577 282.618 226.568 289.64 234.362C290.57 235.394 291.181 236.491 291.474 237.652 291.767 238.813 291.735 239.936 291.377 241.021 291.024 242.11 290.387 243.07 289.465 243.901ZM284.358 223.973L284.642 223.63 296.469 223.938 294.047 212.268 294.337 211.917 307.764 223.031 306.797 224.2 297.687 216.66C297.302 216.341 296.711 215.765 295.914 214.93V214.93C296.303 216.407 296.713 218.174 297.147 220.231 297.58 222.288 297.876 223.947 298.033 225.206V225.206C294.872 225.312 292.182 225.362 289.964 225.356V225.356C289.561 225.346 289.197 225.325 288.873 225.294 288.545 225.267 288.195 225.219 287.825 225.148V225.148C287.783 225.114 287.979 225.232 288.411 225.502V225.502C288.844 225.773 289.162 225.992 289.364 226.16V226.16L298.747 233.926 297.786 235.087ZM295.866 209.017L296.091 208.632 307.812 207.025 303.535 195.9 303.765 195.507 318.812 204.305 318.046 205.614 307.837 199.645C307.406 199.393 306.73 198.92 305.808 198.225V198.225C306.43 199.62 307.121 201.297 307.882 203.257 308.642 205.217 309.201 206.806 309.56 208.023V208.023C306.457 208.639 303.811 209.123 301.621 209.475V209.475C301.221 209.531 300.859 209.569 300.534 209.59 300.206 209.617 299.854 209.626 299.476 209.616V209.616C299.43 209.589 299.642 209.674 300.112 209.871V209.871C300.583 210.068 300.932 210.233 301.159 210.365V210.365L311.674 216.513 310.913 217.814ZM315.478 192.605L306.283 193.723C305.962 193.762 305.724 193.976 305.569 194.364V194.364L304.235 193.831C304.423 193.362 304.669 193.01 304.973 192.775 305.273 192.532 305.662 192.379 306.137 192.315V192.315L314.235 191.324 308.353 184.125 308.988 182.538 315.982 191.205 322.99 193.951 322.42 195.379ZM326.085 185.853C325.996 186.122 325.82 186.323 325.555 186.455 325.289 186.595 325.019 186.619 324.743 186.528V186.528C324.461 186.435 324.255 186.253 324.124 185.983 323.991 185.719 323.969 185.452 324.058 185.183V185.183C324.153 184.895 324.333 184.685 324.597 184.552 324.861 184.419 325.134 184.399 325.416 184.492V184.492C325.691 184.583 325.895 184.76 326.028 185.024 326.161 185.288 326.18 185.564 326.085 185.853ZM67.602 145.002C67.602 143.183 69.076 141.709 70.895 141.709 72.714 141.709 74.189 143.183 74.189 145.002 74.189 146.821 72.714 148.296 70.895 148.296 69.076 148.296 67.602 146.821 67.602 145.002ZM322.281 145.002C322.281 143.183 323.755 141.709 325.574 141.709 327.393 141.709 328.868 143.183 328.868 145.002 328.868 146.821 327.393 148.296 325.574 148.296 323.755 148.296 322.281 146.821 322.281 145.002Z"
                            fill="#ea3c12" data-fill-palette-color="primary"></path>
                        </svg></g>
                    </svg></g>
                </svg></g>
            </svg></g>
          <defs></defs>
        </svg>
        <rect width="395.52" height="279.72" fill="none" stroke="none" visibility="hidden"></rect>
      </g>
    </svg></g>
</svg>
